# xmcd
# 
# Track frame offsets:
#     150
#     23981
#     45210
#     65789
#     89144
#     114912
#     133576
#     155005
#     175921
#     203914
#     231198
#     253961
#     277039
#     305063
# 
# Disc length: 4445
# 
# Revision: 0
# Processed by: cddbd v1.5.2PL0 Copyright (c) Steve Scherf et al.
# Submitted via: fre:ac v1.1beta1pre4
# 
DISCID=d0115b0e
DTITLE=S.G.GIRLS - Sentimental graffiti 2
DYEAR=1999
DGENRE=Anime
TTITLE0=Dear my friend
TTITLE1=故鄉の風
TTITLE2=Ribbon
TTITLE3=雪
TTITLE4=冬の向こうへ
TTITLE5=ぬ．け．が．け
TTITLE6=シルケの溜め息
TTITLE7=素顏のままで
TTITLE8=White Story～冬のかけら～
TTITLE9=Twinkle Star
TTITLE10=Eternal
TTITLE11=September Rain
TTITLE12=たったーつの想い出
TTITLE13=たったーつの想い出[karaoke]
EXTD=
EXTT0=
EXTT1=
EXTT2=
EXTT3=
EXTT4=
EXTT5=
EXTT6=
EXTT7=
EXTT8=
EXTT9=
EXTT10=
EXTT11=
EXTT12=
EXTT13=
PLAYORDER=
